<?xml version="1.0" encoding="UTF-8" standalone="no"?>
<!-- Created with Inkscape (http://www.inkscape.org/) -->

<svg
   width="210mm"
   height="297mm"
   viewBox="0 0 210 297"
   version="1.1"
   id="svg5"
   xml:space="preserve"
   inkscape:version="1.2 (56b05e47e7, 2022-06-09, custom)"
   sodipodi:docname="appel.svg"
   xmlns:inkscape="http://www.inkscape.org/namespaces/inkscape"
   xmlns:sodipodi="http://sodipodi.sourceforge.net/DTD/sodipodi-0.dtd"
   xmlns="http://www.w3.org/2000/svg"
   xmlns:svg="http://www.w3.org/2000/svg"><sodipodi:namedview
     id="namedview7"
     pagecolor="#ffffff"
     bordercolor="#666666"
     borderopacity="1.0"
     inkscape:showpageshadow="2"
     inkscape:pageopacity="0.0"
     inkscape:pagecheckerboard="0"
     inkscape:deskcolor="#d1d1d1"
     inkscape:document-units="mm"
     showgrid="false"
     inkscape:zoom="0.75722503"
     inkscape:cx="397.50403"
     inkscape:cy="561.92015"
     inkscape:window-width="1848"
     inkscape:window-height="1016"
     inkscape:window-x="72"
     inkscape:window-y="27"
     inkscape:window-maximized="1"
     inkscape:current-layer="layer1" /><defs
     id="defs2" /><g
     inkscape:label="Layer 1"
     inkscape:groupmode="layer"
     id="layer1"><g
       id="g93"
       transform="matrix(0.31072878,0,0,0.38609982,23.953012,53.560155)"
       style="fill:#ffffff"><g
         id="g29"
         style="fill:#ffffff">
	<g
   id="g27"
   style="fill:#ffffff">
		<path
   d="m 389.4,113.958 c -3.1,-3.092 -8.116,-3.092 -11.204,0 L 2.36,489.682 c -3.096,3.092 -3.096,8.112 0,11.204 1.544,1.548 3.572,2.316 5.6,2.316 2.028,0 4.052,-0.768 5.604,-2.316 L 389.4,125.166 c 3.096,-3.096 3.1,-8.116 0,-11.208 z"
   id="path25"
   style="fill:#ffffff" />
	</g>
</g><g
         id="g35"
         style="fill:#ffffff">
	<g
   id="g33"
   style="fill:#ffffff">
		<path
   d="M 505.976,427.906 378.164,300.122 c -1.488,-1.484 -4.12,-1.484 -5.604,0 l -45.768,45.76 c -0.74,0.744 -1.156,1.752 -1.156,2.804 0,1.052 0.416,2.056 1.156,2.796 l 11.784,11.776 -27.096,27.076 C 250.64,342.262 164.704,256.278 116.764,195.518 l 27.008,-27 11.78,11.768 c 1.548,1.552 4.056,1.552 5.6,0 l 45.768,-45.752 c 0.744,-0.748 1.16,-1.752 1.16,-2.804 0,-1.048 -0.416,-2.06 -1.16,-2.8 L 79.108,1.158 c -1.548,-1.544 -4.056,-1.544 -5.604,0 L 27.74,46.91 c -0.744,0.748 -1.16,1.752 -1.16,2.804 0,1.048 0.416,2.056 1.16,2.8 L 39.256,64.03 C 26.464,85.134 8.468,114.726 6.428,117.738 -0.32,124.702 -1.46,135.614 3.744,143.826 87.328,275.598 232.06,420.29 363.888,503.878 c 3.404,2.152 7.32,3.288 11.332,3.288 5.496,0 10.856,-2.172 14.784,-5.992 2.904,-2.008 32.196,-20.348 53.112,-33.396 l 11.484,11.48 c 1.548,1.548 4.056,1.548 5.6,0 l 45.768,-45.752 c 0.744,-0.748 1.16,-1.752 1.16,-2.796 0.008,-1.052 -0.412,-2.06 -1.152,-2.804 z"
   id="path31"
   style="fill:#ffffff" />
	</g>
</g><g
         id="g37"
         style="fill:#ffffff">
</g><g
         id="g39"
         style="fill:#ffffff">
</g><g
         id="g41"
         style="fill:#ffffff">
</g><g
         id="g43"
         style="fill:#ffffff">
</g><g
         id="g45"
         style="fill:#ffffff">
</g><g
         id="g47"
         style="fill:#ffffff">
</g><g
         id="g49"
         style="fill:#ffffff">
</g><g
         id="g51"
         style="fill:#ffffff">
</g><g
         id="g53"
         style="fill:#ffffff">
</g><g
         id="g55"
         style="fill:#ffffff">
</g><g
         id="g57"
         style="fill:#ffffff">
</g><g
         id="g59"
         style="fill:#ffffff">
</g><g
         id="g61"
         style="fill:#ffffff">
</g><g
         id="g63"
         style="fill:#ffffff">
</g><g
         id="g65"
         style="fill:#ffffff">
</g></g></g></svg>
