<?xml version="1.0" encoding="UTF-8" standalone="no"?>
<!-- Created with Inkscape (http://www.inkscape.org/) -->

<svg
   width="210mm"
   height="297mm"
   viewBox="0 0 210 297"
   version="1.1"
   id="svg5"
   xml:space="preserve"
   inkscape:version="1.2 (56b05e47e7, 2022-06-09, custom)"
   sodipodi:docname="audio.svg"
   xmlns:inkscape="http://www.inkscape.org/namespaces/inkscape"
   xmlns:sodipodi="http://sodipodi.sourceforge.net/DTD/sodipodi-0.dtd"
   xmlns="http://www.w3.org/2000/svg"
   xmlns:svg="http://www.w3.org/2000/svg"><sodipodi:namedview
     id="namedview7"
     pagecolor="#ffffff"
     bordercolor="#666666"
     borderopacity="1.0"
     inkscape:showpageshadow="2"
     inkscape:pageopacity="0.0"
     inkscape:pagecheckerboard="0"
     inkscape:deskcolor="#d1d1d1"
     inkscape:document-units="mm"
     showgrid="false"
     inkscape:zoom="0.75722503"
     inkscape:cx="397.50403"
     inkscape:cy="561.92015"
     inkscape:window-width="1848"
     inkscape:window-height="1016"
     inkscape:window-x="72"
     inkscape:window-y="27"
     inkscape:window-maximized="1"
     inkscape:current-layer="g37" /><defs
     id="defs2" /><g
     inkscape:label="Layer 1"
     inkscape:groupmode="layer"
     id="layer1"><g
       style="overflow:hidden;fill:currentColor"
       id="g37"
       transform="matrix(0.26458333,0,0,0.26458333,-30.293724,13.208041)"><path
         d="m 842,454 c 0,-4.4 -3.6,-8 -8,-8 h -60 c -4.4,0 -8,3.6 -8,8 0,140.3 -113.7,254 -254,254 -140.3,0 -254,-113.7 -254,-254 0,-4.4 -3.6,-8 -8,-8 h -60 c -4.4,0 -8,3.6 -8,8 0,168.7 126.6,307.9 290,327.6 V 884 H 326.7 C 313,884 302,898.3 302,916 v 36 c 0,4.4 2.8,8 6.2,8 h 407.6 c 3.4,0 6.2,-3.6 6.2,-8 v -36 c 0,-17.7 -11,-32 -24.7,-32 H 548 V 782.1 c 165.3,-18 294,-158 294,-328.1 z"
         fill=""
         id="path25"
         style="fill:#ffffff" /><path
         d="m 512,624 c 93.9,0 170,-75.2 170,-168 V 232 C 682,139.2 605.9,64 512,64 418.1,64 342,139.2 342,232 v 224 c 0,92.8 76.1,168 170,168 z M 418,232 c 0,-50.6 41.9,-92 94,-92 52.1,0 94,41.4 94,92 v 224 c 0,50.6 -41.9,92 -94,92 -52.1,0 -94,-41.4 -94,-92 z"
         fill=""
         id="path27"
         style="fill:#ffffff" /></g></g></svg>
