<?xml version="1.0" encoding="UTF-8" standalone="no"?>
<!-- Created with Inkscape (http://www.inkscape.org/) -->

<svg
   width="210mm"
   height="297mm"
   viewBox="0 0 210 297"
   version="1.1"
   id="svg5"
   xml:space="preserve"
   inkscape:version="1.2 (56b05e47e7, 2022-06-09, custom)"
   sodipodi:docname="double contact.svg"
   xmlns:inkscape="http://www.inkscape.org/namespaces/inkscape"
   xmlns:sodipodi="http://sodipodi.sourceforge.net/DTD/sodipodi-0.dtd"
   xmlns="http://www.w3.org/2000/svg"
   xmlns:svg="http://www.w3.org/2000/svg"><sodipodi:namedview
     id="namedview7"
     pagecolor="#ffffff"
     bordercolor="#666666"
     borderopacity="1.0"
     inkscape:showpageshadow="2"
     inkscape:pageopacity="0.0"
     inkscape:pagecheckerboard="0"
     inkscape:deskcolor="#d1d1d1"
     inkscape:document-units="mm"
     showgrid="false"
     inkscape:zoom="0.75722503"
     inkscape:cx="397.50403"
     inkscape:cy="561.92015"
     inkscape:window-width="1848"
     inkscape:window-height="1016"
     inkscape:window-x="72"
     inkscape:window-y="27"
     inkscape:window-maximized="1"
     inkscape:current-layer="layer1" /><defs
     id="defs2" /><g
     inkscape:label="Layer 1"
     inkscape:groupmode="layer"
     id="layer1"><g
       id="g33"
       transform="matrix(0.26458333,0,0,0.26458333,-27.118724,16.383041)"
       style="fill:#ffffff"><path
         d="m 685.2,618.8 c -46.2,0 -89.7,-11.6 -127.8,-32 -21.2,28.9 -47.6,53.7 -78.1,72.6 l 1,0.2 C 552.4,678.5 607.2,715 646.1,770 H 990 C 960.4,659.6 895.8,608.3 813.3,586.6 c -38.2,20.6 -81.8,32.2 -128.1,32.2 z"
         id="path27"
         style="fill:#ffffff" /><path
         d="m 609.7,400.7 h 223.8 c -27.3,54.5 -83.1,92.3 -148.2,92.3 -28.9,0 -55.7,-7.8 -79.2,-20.8 -3.4,18.8 -8.2,37.1 -15.2,54.4 28.7,13.6 60.5,21.8 94.4,21.8 122.4,0 221.6,-99.2 221.6,-221.6 0,-122.4 -99.2,-221.6 -221.6,-221.6 -76.8,0 -144.4,39.1 -184.1,98.4 60.7,46.2 101.8,116.8 108.5,197.1 z"
         id="path29"
         style="fill:#ffffff" /><path
         d="M 657.6,894.8 H 10 C 41.5,777.5 110.1,723 197.7,700 c 40.6,21.8 86.9,34.1 136,34.1 49.2,0 95.5,-12.4 136.1,-34.1 87.7,22.9 156.3,77.5 187.8,194.8 z M 98.3,423.8 c 0,-130.1 105.4,-235.5 235.5,-235.5 130.1,0 235.5,105.4 235.5,235.5 0,130.1 -105.4,235.4 -235.5,235.4 C 203.7,659.3 98.3,553.9 98.3,423.8 Z m 78,78.5 c 29,57.9 88.3,98.1 157.4,98.1 69.2,0 128.4,-40.2 157.4,-98.1 z"
         id="path31"
         style="fill:#ffffff" /></g></g></svg>
