<?xml version="1.0" encoding="UTF-8"?>
<svg width="752pt" height="752pt" version="1.1" viewBox="0 0 752 752" xmlns="http://www.w3.org/2000/svg">
 <g>
  <path d="m383.58 445.14-30.781 84.77c-4.2617 11.84-17.051 17.996-28.887 13.734-11.84-4.2617-17.996-17.051-13.734-28.887l30.781-84.77c4.2617-11.84 17.051-17.996 28.887-13.734 11.84 3.7852 17.996 17.047 13.734 28.887z"/>
  <path d="m587.22 252.4h-153.44c-7.5781 0-13.734-6.1562-13.734-13.734v-17.996c0-7.5781 6.1562-13.734 13.734-13.734h153.44c7.5781 0 13.734 6.1562 13.734 13.734v17.996c0 7.5742-6.1562 13.734-13.734 13.734z"/>
  <path d="m587.22 321.54h-243.89c-7.5781 0-13.734-6.1562-13.734-13.734v-17.996c0-7.5781 6.1562-13.734 13.734-13.734h243.89c7.5781 0 13.734 6.1562 13.734 13.734v17.996c0 7.5781-6.1562 13.734-13.734 13.734z"/>
  <path d="m385.95 252.4h-221.16c-7.5781 0-13.734-6.1562-13.734-13.734v-17.996c0-7.5781 6.1562-13.734 13.734-13.734h221.64c7.5781 0 13.734 6.1562 13.734 13.734l-0.003906 17.996c-0.47266 7.5742-6.6289 13.734-14.207 13.734z"/>
  <path d="m297.86 459.82h-133.07c-7.5781 0-13.734-6.1562-13.734-13.734v-17.996c0-7.5781 6.1562-13.734 13.734-13.734h133.55c7.5781 0 13.734 6.1562 13.734 13.734v17.996c-0.47656 7.5781-6.6328 13.734-14.211 13.734z"/>
  <path d="m182.78 459.82h-17.996c-7.5781 0-13.734-6.1562-13.734-13.734v-225.42c0-7.5781 6.1562-13.734 13.734-13.734h17.996c7.5781 0 13.734 6.1562 13.734 13.734v225.43c-0.47656 7.5742-6.1562 13.73-13.734 13.73z"/>
  <path d="m587.22 459.82h-153.44c-7.5781 0-13.734-6.1562-13.734-13.734v-17.996c0-7.5781 6.1562-13.734 13.734-13.734h153.44c7.5781 0 13.734 6.1562 13.734 13.734v17.996c0 7.5781-6.1562 13.734-13.734 13.734z"/>
  <path d="m310.17 529.91-30.781-84.77c-4.2617-11.84 1.8945-24.625 13.734-28.887 11.84-4.2617 24.625 1.8945 28.887 13.734l30.781 84.77c4.2617 11.84-1.8945 24.625-13.734 28.887-11.363 4.2617-24.621-1.8945-28.887-13.734z"/>
  <path d="m388.32 459.82h-27.941c-7.5781 0-13.734-6.1562-13.734-13.734v-17.996c0-7.5781 6.1562-13.734 13.734-13.734h27.941c7.5781 0 13.734 6.1562 13.734 13.734v17.996c-0.003906 7.5781-6.1602 13.734-13.734 13.734z"/>
  <path d="m587.22 390.68h-243.89c-7.5781 0-13.734-6.1562-13.734-13.734v-17.996c0-7.5781 6.1562-13.734 13.734-13.734h243.89c7.5781 0 13.734 6.1562 13.734 13.734v17.996c0 7.5781-6.1562 13.734-13.734 13.734z"/>
 </g>
</svg>
