<?xml version="1.0" encoding="UTF-8" standalone="no"?>
<!-- Created with Inkscape (http://www.inkscape.org/) -->

<svg
   width="210mm"
   height="297mm"
   viewBox="0 0 210 297"
   version="1.1"
   id="svg5"
   xml:space="preserve"
   inkscape:version="1.2 (56b05e47e7, 2022-06-09, custom)"
   sodipodi:docname="menu.svg"
   xmlns:inkscape="http://www.inkscape.org/namespaces/inkscape"
   xmlns:sodipodi="http://sodipodi.sourceforge.net/DTD/sodipodi-0.dtd"
   xmlns="http://www.w3.org/2000/svg"
   xmlns:svg="http://www.w3.org/2000/svg"><sodipodi:namedview
     id="namedview7"
     pagecolor="#ffffff"
     bordercolor="#666666"
     borderopacity="1.0"
     inkscape:showpageshadow="2"
     inkscape:pageopacity="0.0"
     inkscape:pagecheckerboard="0"
     inkscape:deskcolor="#d1d1d1"
     inkscape:document-units="mm"
     showgrid="false"
     inkscape:zoom="0.75722503"
     inkscape:cx="397.50403"
     inkscape:cy="561.92015"
     inkscape:window-width="1848"
     inkscape:window-height="1016"
     inkscape:window-x="72"
     inkscape:window-y="27"
     inkscape:window-maximized="1"
     inkscape:current-layer="g107" /><defs
     id="defs2" /><g
     inkscape:label="Layer 1"
     inkscape:groupmode="layer"
     id="layer1"><g
       id="g107"
       transform="matrix(0.26458333,0,0,0.26458333,54.244751,97.746384)"><g
         id="g44"
         style="fill:#ffffff"
         transform="matrix(1.4605035,0,-0.12824878,1.6938044,-51.671944,-161.27089)">
	<g
   id="Menu_1_"
   style="fill:#ffffff">
		<path
   d="m 12.03,120.303 h 360.909 c 6.641,0 12.03,-5.39 12.03,-12.03 0,-6.641 -5.39,-12.03 -12.03,-12.03 H 12.03 c -6.641,0 -12.03,5.39 -12.03,12.03 0,6.64 5.39,12.03 12.03,12.03 z"
   id="path25"
   style="fill:#ffffff" />
		<path
   d="M 372.939,180.455 H 12.03 c -6.641,0 -12.03,5.39 -12.03,12.03 0,6.64 5.39,12.03 12.03,12.03 h 360.909 c 6.641,0 12.03,-5.39 12.03,-12.03 0,-6.64 -5.389,-12.03 -12.03,-12.03 z"
   id="path27"
   style="fill:#ffffff" />
		<path
   d="M 372.939,264.667 H 132.333 c -6.641,0 -12.03,5.39 -12.03,12.03 0,6.641 5.39,12.03 12.03,12.03 h 240.606 c 6.641,0 12.03,-5.39 12.03,-12.03 0.001,-6.641 -5.389,-12.03 -12.03,-12.03 z"
   id="path29"
   style="fill:#ffffff" />
	</g>
	<g
   id="g32"
   style="fill:#ffffff">
	</g>
	<g
   id="g34"
   style="fill:#ffffff">
	</g>
	<g
   id="g36"
   style="fill:#ffffff">
	</g>
	<g
   id="g38"
   style="fill:#ffffff">
	</g>
	<g
   id="g40"
   style="fill:#ffffff">
	</g>
	<g
   id="g42"
   style="fill:#ffffff">
	</g>
</g><g
         id="g46">
</g><g
         id="g48">
</g><g
         id="g50">
</g><g
         id="g52">
</g><g
         id="g54">
</g><g
         id="g56">
</g><g
         id="g58">
</g><g
         id="g60">
</g><g
         id="g62">
</g><g
         id="g64">
</g><g
         id="g66">
</g><g
         id="g68">
</g><g
         id="g70">
</g><g
         id="g72">
</g><g
         id="g74">
</g></g></g></svg>
