<?xml version="1.0" encoding="UTF-8" standalone="no"?>
<!-- Created with Inkscape (http://www.inkscape.org/) -->

<svg
   width="210mm"
   height="297mm"
   viewBox="0 0 210 297"
   version="1.1"
   id="svg5"
   xml:space="preserve"
   inkscape:version="1.2 (56b05e47e7, 2022-06-09, custom)"
   sodipodi:docname="message.svg"
   xmlns:inkscape="http://www.inkscape.org/namespaces/inkscape"
   xmlns:sodipodi="http://sodipodi.sourceforge.net/DTD/sodipodi-0.dtd"
   xmlns="http://www.w3.org/2000/svg"
   xmlns:svg="http://www.w3.org/2000/svg"><sodipodi:namedview
     id="namedview7"
     pagecolor="#ffffff"
     bordercolor="#666666"
     borderopacity="1.0"
     inkscape:showpageshadow="2"
     inkscape:pageopacity="0.0"
     inkscape:pagecheckerboard="0"
     inkscape:deskcolor="#d1d1d1"
     inkscape:document-units="mm"
     showgrid="false"
     inkscape:zoom="0.75722503"
     inkscape:cx="397.50403"
     inkscape:cy="561.92015"
     inkscape:window-width="1848"
     inkscape:window-height="1016"
     inkscape:window-x="72"
     inkscape:window-y="27"
     inkscape:window-maximized="1"
     inkscape:current-layer="layer1" /><defs
     id="defs2" /><g
     inkscape:label="Layer 1"
     inkscape:groupmode="layer"
     id="layer1"><path
       class="st0"
       d="m 40.369491,44.615371 h 92.739099 c 7.04216,0 13.44413,2.227455 18.08927,5.828355 4.64515,3.600901 7.51861,8.563687 7.51861,14.022749 v 44.261065 c 0,5.45905 -2.87346,10.42185 -7.51861,14.02274 -4.64514,3.6009 -11.04711,5.82835 -18.08927,5.82835 H 84.617448 l -38.873286,25.91036 c -1.801483,1.2003 -4.526036,1.03874 -6.074418,-0.36948 -0.759302,-0.69249 -1.101729,-1.54653 -1.027289,-2.38903 L 40.711927,128.567 h -0.342406 c -7.042157,0 -13.444123,-2.22751 -18.089267,-5.82839 -4.645143,-3.58935 -7.518584,-8.55216 -7.518584,-14.01121 V 64.466344 c 0,-5.459063 2.873441,-10.421849 7.518584,-14.022749 4.630254,-3.600899 11.032215,-5.828355 18.089261,-5.828355 z m 68.366979,33.896931 c 6.66999,0 12.07445,4.189519 12.07445,9.360024 0,5.170507 -5.40446,9.360027 -12.07445,9.360027 -6.66993,0 -12.074399,-4.18952 -12.074399,-9.360027 0,-5.170505 5.404469,-9.360024 12.074399,-9.360024 z m -43.816195,0 c 6.669949,0 12.074409,4.189519 12.074409,9.360024 0,5.170507 -5.40446,9.360027 -12.074409,9.360027 -6.669954,0 -12.0744,-4.18952 -12.0744,-9.360027 0,-5.170505 5.404446,-9.360024 12.0744,-9.360024 z M 173.75363,76.908063 c 5.01731,0.750181 9.51362,2.666045 12.99747,5.36671 4.54091,3.520103 7.3697,8.379039 7.3697,13.734189 v 44.261058 c 0,5.35521 -2.81386,10.21412 -7.3697,13.73423 -4.54095,3.52008 -10.80888,5.71295 -17.71705,5.71295 h -0.9082 l 2.11414,23.59054 v 0 c 0.0595,0.73863 -0.22342,1.50034 -0.89331,2.10052 -1.35483,1.23491 -3.75185,1.37339 -5.33002,0.32323 L 124.99447,158.95557 H 73.555478 l 25.324951,-19.96651 h 53.657421 c 11.70214,0 21.29023,-7.42108 21.29023,-16.50418 V 78.212314 c -0.0167,-0.438557 -0.0282,-0.877168 -0.0742,-1.30418 z M 133.09373,51.309338 H 40.369491 c -4.660027,0 -8.90319,1.477307 -11.985063,3.866333 -3.081875,2.38907 -4.987579,5.666828 -4.987579,9.290804 v 44.261065 c 0,3.61246 1.905704,6.90172 4.987579,9.29081 3.081873,2.38902 7.325036,3.86633 11.985063,3.86633 h 4.972691 v 0.0128 l 0.282873,0.0128 c 2.367234,0.12698 4.168717,1.71968 4.004948,3.55476 l -1.682376,18.76621 32.069356,-21.37457 c 0.774227,-0.60014 1.846184,-0.96947 3.03721,-0.96947 h 50.039537 c 4.66,0 8.90321,-1.47731 11.98503,-3.86633 3.0819,-2.38907 4.98761,-5.67834 4.98761,-9.2908 V 64.469966 c 0,-3.612462 -1.90571,-6.901735 -4.98761,-9.290806 -3.08182,-2.389024 -7.32503,-3.866333 -11.98503,-3.866333 z"
       id="path27"
       style="stroke-width:1.31085;fill:#ffffff" /></g><style
     type="text/css"
     id="style25">.st0{fill-rule:evenodd;clip-rule:evenodd;}</style></svg>
