<?xml version="1.0" encoding="UTF-8" standalone="no"?>
<!-- Created with Inkscape (http://www.inkscape.org/) -->

<svg
   width="210mm"
   height="297mm"
   viewBox="0 0 210 297"
   version="1.1"
   id="svg5"
   xml:space="preserve"
   inkscape:version="1.2 (56b05e47e7, 2022-06-09, custom)"
   sodipodi:docname="notifications.svg"
   xmlns:inkscape="http://www.inkscape.org/namespaces/inkscape"
   xmlns:sodipodi="http://sodipodi.sourceforge.net/DTD/sodipodi-0.dtd"
   xmlns="http://www.w3.org/2000/svg"
   xmlns:svg="http://www.w3.org/2000/svg"><sodipodi:namedview
     id="namedview7"
     pagecolor="#ffffff"
     bordercolor="#666666"
     borderopacity="1.0"
     inkscape:showpageshadow="2"
     inkscape:pageopacity="0.0"
     inkscape:pagecheckerboard="0"
     inkscape:deskcolor="#d1d1d1"
     inkscape:document-units="mm"
     showgrid="false"
     inkscape:zoom="0.75722503"
     inkscape:cx="397.50403"
     inkscape:cy="561.92015"
     inkscape:window-width="1848"
     inkscape:window-height="1016"
     inkscape:window-x="72"
     inkscape:window-y="27"
     inkscape:window-maximized="1"
     inkscape:current-layer="layer1" /><defs
     id="defs2" /><g
     inkscape:label="Layer 1"
     inkscape:groupmode="layer"
     id="layer1"><path
       d="m 183.37952,199.38795 c -29.11898,-28.71847 -28.87254,-65.62016 -28.76801,-87.66953 l 0.1204,-3.84054 c 0,-20.350472 -13.05708,-38.469603 -32.39196,-45.0381 -0.53854,-8.114985 -6.98733,-14.543022 -15.34377,-14.543022 -8.356434,0 -14.394853,6.428037 -14.941283,14.543022 -19.334376,6.573975 -30.957721,24.693106 -30.957721,45.0381 v 2.89696 c 0,20.80769 -1.434131,59.55869 -30.896616,88.61585 -1.069211,1.05451 -3.026131,2.63821 -2.452084,4.0176 0.576016,1.37745 1.943134,2.27824 3.45221,2.27824 h 54.985672 c 0,7.37188 8.863456,19.48085 19.752532,19.48085 10.88906,0 19.75253,-12.11095 19.75253,-19.48085 h 54.98566 c 1.50914,0 2.89989,-0.89886 3.4759,-2.27824 0.57799,-1.37939 0.29394,-2.97086 -0.77327,-4.0176 z m -77.4284,18.39756 c -6.764636,0 -12.279883,-12.11098 -12.279883,-12.11098 H 118.2234 c 0,0 -5.50765,12.11098 -12.27228,12.11098 z M 39.713772,198.30466 C 65.506745,168.07655 68.586307,131.1903 68.586307,110.73474 v -2.86775 c 0,-18.044934 10.688055,-34.002974 28.341759,-38.816275 1.808961,-0.494172 1.286214,-2.54288 1.023802,-4.377555 -0.0375,-0.264597 -0.08875,-0.531137 -0.08875,-0.811299 0,-4.525376 3.730392,-8.204637 8.319072,-8.204637 4.58848,0 8.31906,3.679062 8.31906,8.204637 0,0.330745 -0.0592,0.642056 -0.13414,1.099231 -0.26829,1.834674 0.88968,3.589563 2.70458,4.091514 17.6537,4.805537 29.98508,20.764862 29.98508,38.816264 l -0.0158,3.81135 c -0.11248,21.64841 -0.28407,56.91397 25.13444,86.62359 z"
       id="path25"
       style="fill:#ffffff;stroke-width:0.501527" /></g></svg>
