<?xml version="1.0" encoding="UTF-8" standalone="no"?>
<!-- Created with Inkscape (http://www.inkscape.org/) -->

<svg
   width="210mm"
   height="297mm"
   viewBox="0 0 210 297"
   version="1.1"
   id="svg5"
   xml:space="preserve"
   inkscape:version="1.2 (56b05e47e7, 2022-06-09, custom)"
   sodipodi:docname="parameters.svg"
   xmlns:inkscape="http://www.inkscape.org/namespaces/inkscape"
   xmlns:sodipodi="http://sodipodi.sourceforge.net/DTD/sodipodi-0.dtd"
   xmlns="http://www.w3.org/2000/svg"
   xmlns:svg="http://www.w3.org/2000/svg"><sodipodi:namedview
     id="namedview7"
     pagecolor="#ffffff"
     bordercolor="#666666"
     borderopacity="1.0"
     inkscape:showpageshadow="2"
     inkscape:pageopacity="0.0"
     inkscape:pagecheckerboard="0"
     inkscape:deskcolor="#d1d1d1"
     inkscape:document-units="mm"
     showgrid="false"
     inkscape:zoom="0.75722503"
     inkscape:cx="397.50403"
     inkscape:cy="561.92015"
     inkscape:window-width="1848"
     inkscape:window-height="1016"
     inkscape:window-x="72"
     inkscape:window-y="27"
     inkscape:window-maximized="1"
     inkscape:current-layer="layer1" /><defs
     id="defs2" /><g
     inkscape:label="Layer 1"
     inkscape:groupmode="layer"
     id="layer1"><path
       d="M 111.7837,216.04332 H 98.501033 c -8.173592,0 -12.258765,-4.22439 -12.258765,-12.67548 v -9.50746 c -3.064142,-1.05608 -6.130816,-2.11217 -10.216192,-4.22439 l -7.152306,7.39544 c -4.085503,4.22438 -10.216191,8.45144 -17.368479,0 l -9.194894,-9.50744 c -6.130812,-6.33923 -5.109388,-11.61947 0,-17.95891 l 8.173587,-6.34181 c -2.042706,-4.22439 -4.085504,-8.45145 -5.109379,-12.67551 H 35.158418 c -8.173596,0 -12.258775,-4.22437 -12.258775,-12.67546 v -12.67549 c 0,-8.45144 4.085503,-12.67549 12.258775,-12.67549 h 9.194893 c 1.021367,-3.16831 2.04271,-6.33924 4.085509,-10.56347 l -7.152309,-7.395418 c -2.042719,-2.112161 -5.109386,-5.283087 -5.109386,-9.507466 0,-4.224386 2.042718,-6.339205 4.085504,-8.451443 l 9.194892,-9.507444 c 6.130816,-6.339219 11.23748,-5.283082 17.36848,1.05608 l 7.15748,6.333927 c 4.085504,-2.112162 8.173595,-4.22438 12.258787,-5.28308 v -9.507445 c 0,-8.451439 4.085504,-12.675498 12.258765,-12.675498 H 111.7837 c 10.21619,0 12.25877,7.395433 12.25877,12.675498 v 9.507445 c 4.0855,1.056081 8.17359,3.168319 12.25878,5.28308 l 6.13333,-6.339219 c 2.04272,-2.112162 5.10939,-4.224382 8.1736,-5.283081 4.0855,0 7.15231,2.112162 9.19488,4.224383 l 9.1949,9.507462 c 2.04273,2.112164 4.08551,4.224382 4.08551,8.451441 0,4.224379 -2.04273,7.395427 -5.1094,9.507444 l -7.15229,7.395424 c 2.04271,3.16831 3.06414,6.33924 4.0855,10.56347 h 9.19489 c 10.21619,0 12.25877,7.39544 12.25877,12.67548 v 12.6755 c 0,5.28308 -1.02134,12.67548 -12.25877,12.67548 l -8.16842,0.008 c -1.02137,4.22436 -3.06414,8.45143 -5.10939,12.67547 l 7.15231,7.39544 c 6.1308,6.3392 6.1308,11.61947 1.02135,17.95889 l -9.19488,9.50744 c -7.15231,7.39543 -13.28267,3.16832 -17.36848,0 l -8.1736,-8.45143 c -3.06416,2.11215 -6.13082,3.16831 -10.21619,4.22437 v 9.50746 c 0,5.28307 -2.04531,12.67816 -12.26137,12.67816 z m -15.325905,-9.50744 h 2.042724 13.282661 2.04271 v -3.16832 -16.90288 l 4.0855,-1.05606 c 5.1094,-1.05608 9.1949,-3.16832 14.30461,-6.33923 l 3.06415,-2.11216 15.3259,15.84687 c 0,0 1.02137,0 2.04271,-1.05608 l 9.19489,-9.50744 c 1.02137,-1.05608 1.02137,-2.11216 1.02137,-2.11216 0,0 0,-1.05609 -2.04272,-2.11217 l -12.25877,-12.67547 2.0427,-3.16831 c 3.06414,-5.28307 5.1094,-10.56347 7.15231,-16.90289 l 1.02137,-4.22438 h 16.34718 2.04273 v -3.16831 -12.67547 -3.1683 h -2.04273 -16.34718 l -1.02137,-4.22439 c -1.02136,-5.28305 -3.06415,-9.50744 -6.13081,-14.79087 L 149.585,99.84957 161.84378,87.174082 c 1.02137,-1.05608 2.04273,-2.112161 2.04273,-2.112161 0,0 0,-1.056079 -1.02136,-2.112141 l -9.19491,-9.507462 c -1.02135,-1.056083 -2.04269,-1.056083 -2.04269,-1.056083 0,0 -1.02137,0 -2.04273,2.112163 L 138.34733,86.117879 135.2832,84.00571 C 130.1738,80.837409 125.067,78.722647 118.936,76.610295 l -4.0855,-1.056081 v -15.8596 -3.168303 h -2.04272 -13.28267 -2.042724 v 3.168303 16.902896 l -4.0855,1.056081 c -6.130797,1.05608 -11.237481,4.224383 -16.347191,7.395416 L 73.985553,87.161168 60.704835,73.428999 c 0,0 -1.021361,0 -2.042724,1.056082 l -9.194884,9.507445 c -1.021363,1.056078 -1.021363,2.112159 -1.021363,2.112159 0,0 0,1.05608 2.042725,2.112172 l 12.258769,12.675473 -2.042707,3.1683 c -2.042723,4.22439 -4.085503,9.50746 -6.130814,14.79086 l -1.021363,4.22439 -18.394961,0.001 h -2.04272 v 3.16831 12.67547 3.1683 h 2.04272 16.347192 l 1.021361,4.22439 c 1.021363,6.33921 4.085504,11.61947 7.152307,16.90287 l 2.042705,3.16831 -12.258767,12.6755 c -1.021363,1.05608 -2.042725,2.11214 -2.042725,2.11214 0,0 0,1.05608 1.021362,2.11216 l 9.194883,9.50746 c 1.021363,1.05606 2.042725,1.05606 2.042725,1.05606 0,0 1.021363,0 2.042725,-2.11214 l 12.258769,-12.67549 3.064142,2.11215 c 4.085503,3.16831 9.194901,4.22439 14.304612,6.33922 l 4.0855,1.05608 v 16.90288 c 1.023876,0.008 1.023876,0.008 1.023876,1.0639 z m 8.173595,-46.48126 c -15.325898,0 -27.584667,-12.67547 -27.584667,-28.52235 0,-15.84687 12.258769,-28.52236 27.584667,-28.52236 15.3259,0 27.58467,12.67549 27.58467,28.52236 0.001,15.84418 -12.25877,28.52235 -27.58467,28.52235 z m 0,-46.48392 c -10.216188,0 -18.389783,8.45143 -18.389783,17.95889 0,10.56345 8.173595,19.01489 18.389783,19.01489 10.21619,0 17.3685,-8.45144 17.3685,-19.01489 1.02387,-10.56346 -7.14972,-17.95889 -17.3685,-17.95889 z"
       id="path25"
       style="stroke-width:0.658117;fill:#ffffff" /></g></svg>
