<?xml version="1.0" encoding="UTF-8" standalone="no"?>
<!-- Created with Inkscape (http://www.inkscape.org/) -->

<svg
   width="210mm"
   height="297mm"
   viewBox="0 0 210 297"
   version="1.1"
   id="svg5"
   xml:space="preserve"
   inkscape:version="1.2 (56b05e47e7, 2022-06-09, custom)"
   sodipodi:docname="phone.svg"
   xmlns:inkscape="http://www.inkscape.org/namespaces/inkscape"
   xmlns:sodipodi="http://sodipodi.sourceforge.net/DTD/sodipodi-0.dtd"
   xmlns="http://www.w3.org/2000/svg"
   xmlns:svg="http://www.w3.org/2000/svg"><sodipodi:namedview
     id="namedview7"
     pagecolor="#ffffff"
     bordercolor="#666666"
     borderopacity="1.0"
     inkscape:showpageshadow="2"
     inkscape:pageopacity="0.0"
     inkscape:pagecheckerboard="0"
     inkscape:deskcolor="#d1d1d1"
     inkscape:document-units="mm"
     showgrid="false"
     inkscape:zoom="0.75722503"
     inkscape:cx="397.50403"
     inkscape:cy="561.92015"
     inkscape:window-width="1848"
     inkscape:window-height="1016"
     inkscape:window-x="72"
     inkscape:window-y="27"
     inkscape:window-maximized="1"
     inkscape:current-layer="layer1" /><defs
     id="defs2" /><g
     inkscape:label="Layer 1"
     inkscape:groupmode="layer"
     id="layer1"><path
       d="m 48.616493,137.67123 c 0,0 15.795625,45.13792 69.479577,68.60646 0,0 9.0223,5.3975 20.32,-3.62479 l 16.98625,-17.62125 c 0,0 10.23938,-8.7048 22.86,1.82562 l 50.82646,33.68146 c 0,0 9.94834,10.84792 3.62479,22.86 0,0 -28.60145,54.18667 -95.35583,27.41083 0,0 -123.983747,-59.00208 -160.072914,-175.709783 0,0 -13.546667,-47.519167 34.6075,-74.930001 0,0 11.456458,-4.524375 22.251458,5.106459 l 36.406667,55.033333 c 0,0 6.08542,9.260417 -0.926042,16.562917 -2.06375,1.640417 -28.813125,20.214165 -21.007916,40.798745 z"
       id="path27"
       style="stroke-width:0.264583;fill:#f9f9f9" /></g></svg>
