<?xml version="1.0" encoding="UTF-8" standalone="no"?>
<!-- Created with Inkscape (http://www.inkscape.org/) -->

<svg
   width="210mm"
   height="297mm"
   viewBox="0 0 210 297"
   version="1.1"
   id="svg5"
   xml:space="preserve"
   inkscape:version="1.2 (56b05e47e7, 2022-06-09, custom)"
   sodipodi:docname="search.svg"
   xmlns:inkscape="http://www.inkscape.org/namespaces/inkscape"
   xmlns:sodipodi="http://sodipodi.sourceforge.net/DTD/sodipodi-0.dtd"
   xmlns="http://www.w3.org/2000/svg"
   xmlns:svg="http://www.w3.org/2000/svg"><sodipodi:namedview
     id="namedview7"
     pagecolor="#ffffff"
     bordercolor="#666666"
     borderopacity="1.0"
     inkscape:showpageshadow="2"
     inkscape:pageopacity="0.0"
     inkscape:pagecheckerboard="0"
     inkscape:deskcolor="#d1d1d1"
     inkscape:document-units="mm"
     showgrid="false"
     inkscape:zoom="0.75722503"
     inkscape:cx="397.50403"
     inkscape:cy="561.92015"
     inkscape:window-width="1848"
     inkscape:window-height="1016"
     inkscape:window-x="72"
     inkscape:window-y="27"
     inkscape:window-maximized="1"
     inkscape:current-layer="g27" /><defs
     id="defs2" /><g
     inkscape:label="Layer 1"
     inkscape:groupmode="layer"
     id="layer1"><g
       id="g81"
       transform="matrix(0.26458333,0,0,0.26458333,40.388052,83.889758)"><g
         id="g27">
	<path
   d="m 483.4,454.444 -121.3,-121.4 c 28.7,-35.2 46,-80 46,-128.9 C 408.1,91.644 321.83505,-2.8199309 209.23505,-2.8199309 96.635051,-2.8199309 8.1545981,92.033477 8.1545981,204.53348 8.1545981,317.03348 91.5,408.144 204.1,408.144 c 48.8,0 93.7,-17.3 128.9,-46 l 121.3,121.3 c 8.3,8.3 20.9,8.3 29.2,0 8.3,-8.3 8.3,-20.7 -0.1,-29 z M 40.7,204.144 c 0,-90.1 73.2,-163.3 163.3,-163.3 90.1,0 169.28456,73.3 169.28456,163.4 0,90.1 -79.18456,163.4 -169.28456,163.4 -90.1,0 -163.3,-73.4 -163.3,-163.5 z"
   id="path25"
   style="fill:#ffffff"
   sodipodi:nodetypes="ccsssscsscsssss" />
</g><g
         id="g29">
</g><g
         id="g31">
</g><g
         id="g33">
</g><g
         id="g35">
</g><g
         id="g37">
</g><g
         id="g39">
</g><g
         id="g41">
</g><g
         id="g43">
</g><g
         id="g45">
</g><g
         id="g47">
</g><g
         id="g49">
</g><g
         id="g51">
</g><g
         id="g53">
</g><g
         id="g55">
</g><g
         id="g57">
</g></g></g></svg>
