<?xml version="1.0" encoding="UTF-8" standalone="no"?>
<!-- Created with Inkscape (http://www.inkscape.org/) -->

<svg
   width="210mm"
   height="297mm"
   viewBox="0 0 210 297"
   version="1.1"
   id="svg5"
   xml:space="preserve"
   inkscape:version="1.2 (56b05e47e7, 2022-06-09, custom)"
   sodipodi:docname="subtitle.svg"
   xmlns:inkscape="http://www.inkscape.org/namespaces/inkscape"
   xmlns:sodipodi="http://sodipodi.sourceforge.net/DTD/sodipodi-0.dtd"
   xmlns="http://www.w3.org/2000/svg"
   xmlns:svg="http://www.w3.org/2000/svg"><sodipodi:namedview
     id="namedview7"
     pagecolor="#ffffff"
     bordercolor="#666666"
     borderopacity="1.0"
     inkscape:showpageshadow="2"
     inkscape:pageopacity="0.0"
     inkscape:pagecheckerboard="0"
     inkscape:deskcolor="#d1d1d1"
     inkscape:document-units="mm"
     showgrid="false"
     inkscape:zoom="0.75722503"
     inkscape:cx="397.50403"
     inkscape:cy="561.92015"
     inkscape:window-width="1848"
     inkscape:window-height="1016"
     inkscape:window-x="72"
     inkscape:window-y="27"
     inkscape:window-maximized="1"
     inkscape:current-layer="layer1" /><defs
     id="defs2" /><g
     inkscape:label="Layer 1"
     inkscape:groupmode="layer"
     id="layer1"><g
       id="g45"
       transform="matrix(0.42063505,0,0,0.43784939,-55.952412,-34.020019)"
       style="fill:#ffffff"><path
         d="m 383.58,445.14 -30.781,84.77 c -4.2617,11.84 -17.051,17.996 -28.887,13.734 -11.84,-4.2617 -17.996,-17.051 -13.734,-28.887 l 30.781,-84.77 c 4.2617,-11.84 17.051,-17.996 28.887,-13.734 11.84,3.7852 17.996,17.047 13.734,28.887 z"
         id="path25"
         style="fill:#ffffff" /><path
         d="M 587.22,252.4 H 433.78 c -7.5781,0 -13.734,-6.1562 -13.734,-13.734 V 220.67 c 0,-7.5781 6.1562,-13.734 13.734,-13.734 h 153.44 c 7.5781,0 13.734,6.1562 13.734,13.734 v 17.996 c 0,7.5742 -6.1562,13.734 -13.734,13.734 z"
         id="path27"
         style="fill:#ffffff" /><path
         d="M 587.22,321.54 H 343.33 c -7.5781,0 -13.734,-6.1562 -13.734,-13.734 V 289.81 c 0,-7.5781 6.1562,-13.734 13.734,-13.734 h 243.89 c 7.5781,0 13.734,6.1562 13.734,13.734 v 17.996 c 0,7.5781 -6.1562,13.734 -13.734,13.734 z"
         id="path29"
         style="fill:#ffffff" /><path
         d="M 385.95,252.4 H 164.79 c -7.5781,0 -13.734,-6.1562 -13.734,-13.734 V 220.67 c 0,-7.5781 6.1562,-13.734 13.734,-13.734 h 221.64 c 7.5781,0 13.734,6.1562 13.734,13.734 l -0.004,17.996 c -0.47266,7.5742 -6.6289,13.734 -14.207,13.734 z"
         id="path31"
         style="fill:#ffffff" /><path
         d="M 297.86,459.82 H 164.79 c -7.5781,0 -13.734,-6.1562 -13.734,-13.734 V 428.09 c 0,-7.5781 6.1562,-13.734 13.734,-13.734 h 133.55 c 7.5781,0 13.734,6.1562 13.734,13.734 v 17.996 c -0.47656,7.5781 -6.6328,13.734 -14.211,13.734 z"
         id="path33"
         style="fill:#ffffff" /><path
         d="m 182.78,459.82 h -17.996 c -7.5781,0 -13.734,-6.1562 -13.734,-13.734 v -225.42 c 0,-7.5781 6.1562,-13.734 13.734,-13.734 h 17.996 c 7.5781,0 13.734,6.1562 13.734,13.734 v 225.43 c -0.47656,7.5742 -6.1562,13.73 -13.734,13.73 z"
         id="path35"
         style="fill:#ffffff" /><path
         d="M 587.22,459.82 H 433.78 c -7.5781,0 -13.734,-6.1562 -13.734,-13.734 V 428.09 c 0,-7.5781 6.1562,-13.734 13.734,-13.734 h 153.44 c 7.5781,0 13.734,6.1562 13.734,13.734 v 17.996 c 0,7.5781 -6.1562,13.734 -13.734,13.734 z"
         id="path37"
         style="fill:#ffffff" /><path
         d="m 310.17,529.91 -30.781,-84.77 c -4.2617,-11.84 1.8945,-24.625 13.734,-28.887 11.84,-4.2617 24.625,1.8945 28.887,13.734 l 30.781,84.77 c 4.2617,11.84 -1.8945,24.625 -13.734,28.887 -11.363,4.2617 -24.621,-1.8945 -28.887,-13.734 z"
         id="path39"
         style="fill:#ffffff" /><path
         d="m 388.32,459.82 h -27.941 c -7.5781,0 -13.734,-6.1562 -13.734,-13.734 V 428.09 c 0,-7.5781 6.1562,-13.734 13.734,-13.734 h 27.941 c 7.5781,0 13.734,6.1562 13.734,13.734 v 17.996 c -0.004,7.5781 -6.1602,13.734 -13.734,13.734 z"
         id="path41"
         style="fill:#ffffff" /><path
         d="M 587.22,390.68 H 343.33 c -7.5781,0 -13.734,-6.1562 -13.734,-13.734 V 358.95 c 0,-7.5781 6.1562,-13.734 13.734,-13.734 h 243.89 c 7.5781,0 13.734,6.1562 13.734,13.734 v 17.996 c 0,7.5781 -6.1562,13.734 -13.734,13.734 z"
         id="path43"
         style="fill:#ffffff" /></g></g></svg>
